<?xml version="1.0" standalone="no"?>
<!DOCTYPE svg PUBLIC "-//W3C//DTD SVG 20010904//EN"
 "http://www.w3.org/TR/2001/REC-SVG-20010904/DTD/svg10.dtd">
<svg version="1.0" xmlns="http://www.w3.org/2000/svg"
 width="512.000000pt" height="512.000000pt" viewBox="0 0 512.000000 512.000000"
 preserveAspectRatio="xMidYMid meet">

<g transform="translate(0.000000,512.000000) scale(0.100000,-0.100000)"
fill="#000000" stroke="none">
<path d="M176 5113 l172 -3 6 -43 c9 -54 46 -110 84 -126 25 -11 35 -10 61 3
30 16 31 16 32 -6 4 -131 3 -235 -3 -231 -5 2 -8 19 -9 36 l-1 32 -8 -33 c-8
-35 -20 -54 -20 -33 0 7 -5 9 -10 6 -26 -16 -210 -41 -210 -29 0 5 10 28 22
52 l23 42 -20 37 c-24 44 -86 83 -134 83 -43 0 -103 -34 -124 -70 -19 -31 -23
-85 -7 -95 16 -10 12 -45 -5 -45 -9 0 -15 -9 -15 -25 0 -30 29 -34 53 -7 21
23 21 49 1 98 l-16 38 37 34 c34 31 41 34 83 29 36 -4 53 -12 74 -36 27 -30
28 -33 13 -61 -21 -41 -19 -63 11 -91 24 -22 35 -24 150 -28 96 -2 124 -6 124
-17 0 -7 -7 -17 -15 -21 -13 -8 -22 -51 -24 -120 -1 -19 -7 -23 -35 -23 -20 0
-43 -8 -57 -21 -13 -11 -18 -17 -10 -13 8 4 0 -13 -18 -38 -44 -62 -52 -123
-21 -172 42 -69 86 -82 148 -44 l35 21 -6 -124 c-4 -68 -7 -125 -7 -126 0 -2
-7 -3 -16 -3 -8 0 -13 -4 -9 -10 3 -5 13 -6 22 -3 11 4 14 3 9 -5 -5 -8 -49
-12 -137 -12 -138 0 -142 2 -114 50 8 14 14 35 15 48 0 27 -73 110 -105 118
-35 9 -98 -13 -132 -46 -33 -33 -52 -95 -34 -113 16 -16 13 -47 -4 -47 -8 0
-15 -9 -15 -20 0 -26 31 -26 55 0 17 19 17 47 0 92 -4 10 4 28 22 48 23 26 37
33 70 34 53 1 93 -33 93 -78 0 -21 -3 -27 -9 -18 -6 10 -10 7 -15 -13 -4 -15
-5 -30 -1 -33 3 -3 5 3 5 14 1 12 6 7 16 -16 8 -19 20 -38 27 -42 7 -4 69 -8
140 -8 137 0 140 -1 117 -55 -8 -19 -9 -19 -9 -1 -1 11 -4 16 -8 12 -4 -4 -7
-33 -8 -64 0 -54 -1 -57 -24 -54 -31 5 -71 -6 -71 -19 0 -6 6 -6 19 1 35 18
37 10 3 -11 -35 -23 -56 -55 -67 -106 -10 -48 2 -89 37 -123 33 -33 71 -39
104 -15 12 8 24 11 28 8 3 -3 6 -60 6 -126 0 -105 -2 -118 -16 -113 -9 3 -72
6 -140 6 -112 0 -124 2 -124 18 0 9 7 26 15 36 20 26 19 66 -3 93 -23 29 -82
63 -109 63 -38 0 -101 -30 -118 -57 -17 -25 -17 -78 -1 -114 5 -12 1 -18 -13
-22 -28 -7 -29 -47 -1 -47 17 0 19 -3 10 -19 -25 -49 -2 -128 45 -149 40 -18
115 -15 152 8 60 36 77 105 37 145 -9 9 -14 18 -11 21 3 3 65 2 138 -3 l134
-8 3 -67 c2 -54 6 -68 18 -68 13 0 15 12 13 68 l-4 67 144 3 c86 1 150 7 158
14 17 14 17 49 -2 74 -24 32 -18 60 22 94 32 28 41 31 77 26 58 -10 89 -27
104 -60 13 -25 12 -31 -7 -57 -28 -37 -27 -66 4 -111 33 -48 32 -65 -7 -105
-30 -31 -30 -33 -10 -33 24 0 47 29 58 73 5 21 1 36 -16 59 -12 16 -20 30 -18
31 1 1 67 1 146 -1 l142 -3 0 -74 c0 -68 9 -93 28 -81 4 2 5 35 1 73 -3 37 -3
71 0 75 3 4 74 8 156 10 l150 3 3 27 c2 15 -4 40 -12 57 -22 42 -20 64 10 92
31 29 91 31 141 6 42 -22 50 -50 24 -86 -26 -36 -26 -52 -2 -99 30 -60 32 -85
12 -125 -15 -29 -16 -37 -5 -37 17 0 44 51 44 85 0 14 -11 43 -25 63 -31 46
-31 63 0 100 34 41 32 59 -15 103 -66 63 -137 64 -197 4 -38 -38 -41 -60 -13
-112 11 -21 16 -40 12 -44 -4 -4 -69 -10 -144 -14 l-136 -6 -4 133 c-2 73 -2
134 -1 136 0 2 19 -7 41 -19 34 -20 44 -21 66 -11 57 26 83 119 51 182 -19 37
-69 72 -97 68 -32 -5 -35 -28 -3 -28 85 0 127 -114 67 -181 l-29 -32 -48 23
c-43 21 -51 22 -79 10 -17 -7 -47 -15 -67 -17 -31 -4 -39 0 -63 28 -37 43 -32
98 13 142 30 30 33 31 116 24 l30 -2 -2 106 -2 106 45 7 c24 3 77 3 117 0 77
-6 123 5 134 32 3 10 1 37 -5 61 -10 37 -10 49 4 74 32 62 124 74 179 23 29
-27 30 -48 4 -112 -12 -29 -12 -34 9 -55 21 -20 34 -22 159 -27 l136 -5 1
-108 c0 -60 -1 -110 -3 -113 -7 -7 -61 30 -61 43 0 47 -114 -49 -131 -109 -9
-35 -7 -46 13 -86 14 -28 36 -54 56 -66 32 -18 35 -18 73 -1 21 10 42 15 46
11 5 -5 5 -217 0 -223 -1 -1 -64 -5 -140 -9 -76 -4 -135 -10 -131 -13 3 -3 65
-8 137 -11 l132 -5 3 -77 c2 -63 6 -78 18 -78 13 0 15 13 12 78 l-3 77 139 3
c82 1 145 7 153 14 17 14 17 49 -2 74 -22 29 -18 55 12 86 37 39 107 40 152 2
34 -28 38 -49 16 -78 -21 -28 -19 -76 5 -111 28 -42 26 -87 -6 -119 -25 -24
-25 -26 -7 -26 47 0 72 100 33 135 -32 29 -34 52 -5 102 27 44 27 47 11 79
-47 99 -213 99 -246 0 -9 -28 -8 -40 4 -65 27 -52 22 -58 -51 -64 -38 -4 -98
-7 -135 -7 -78 0 -71 -14 -68 138 1 71 -2 99 -14 117 -19 28 -47 32 -66 10
-19 -23 -49 -18 -81 14 -35 35 -38 81 -10 128 24 38 53 49 92 33 16 -7 40 -9
54 -6 25 6 25 7 25 120 l0 113 63 6 c34 3 81 3 104 0 101 -13 146 18 123 88
-18 52 -6 86 34 106 45 21 95 11 131 -27 26 -27 27 -33 21 -81 -11 -80 2 -89
129 -89 57 0 117 -3 134 -6 30 -6 32 -9 24 -38 -9 -40 -5 -144 8 -168 13 -24
-2 -23 -34 2 -50 39 -91 22 -122 -53 -29 -71 -13 -136 46 -177 27 -20 34 -21
55 -9 15 8 28 9 33 3 5 -5 11 -57 15 -116 l7 -108 -143 -1 c-153 -1 -159 -16
-7 -18 48 -1 100 -4 117 -7 l30 -6 -2 -70 c-1 -48 3 -72 11 -75 9 -3 13 18 15
74 l3 78 143 3 c152 3 167 -3 121 -44 -15 -14 -19 -26 -15 -48 7 -34 33 -66
53 -66 11 0 9 7 -6 26 -27 34 -26 66 0 122 l22 44 -23 49 -23 49 23 25 c45 48
118 49 167 3 27 -25 28 -36 8 -74 -16 -32 -19 -60 -7 -68 4 -2 16 24 26 59 20
72 14 95 -33 120 -76 39 -163 21 -187 -40 -10 -24 -9 -38 2 -70 20 -60 11 -64
-141 -66 l-130 -1 -3 130 -3 130 40 -20 c36 -18 42 -18 75 -4 40 17 76 68 76
109 0 45 -26 95 -62 117 -42 25 -66 25 -93 0 l-22 -21 -7 77 c-3 42 -6 95 -6
116 l0 39 135 -3 c128 -2 137 -1 157 20 21 20 21 25 9 54 -26 64 -25 78 4 108
36 37 80 46 128 27 50 -21 71 -57 61 -104 -9 -47 -7 -63 13 -85 13 -15 33 -18
113 -18 54 0 110 -3 126 -6 l29 -5 -3 -97 c-2 -53 -5 -98 -7 -100 -4 -4 -48
21 -56 32 -4 5 -14 6 -23 3 -9 -4 -18 -5 -20 -4 -10 6 -76 -89 -82 -119 -9
-50 11 -108 47 -138 35 -30 58 -32 98 -11 16 8 31 11 35 8 3 -4 6 -29 6 -58 0
-31 6 -59 15 -71 14 -17 15 -11 13 69 -2 48 -2 87 -1 87 2 0 17 -9 34 -19 25
-15 37 -17 60 -9 39 13 75 58 83 103 12 61 -58 155 -115 155 -7 0 -23 -10 -36
-22 l-23 -21 0 111 0 112 133 0 c120 0 136 2 152 20 17 19 17 43 0 97 -6 17 0
30 23 53 38 37 84 40 133 7 43 -28 53 -81 20 -104 -27 -18 -27 -55 -1 -78 21
-19 21 -19 6 10 -20 38 -14 42 19 13 24 -21 39 -23 152 -28 89 -4 128 -9 131
-17 2 -7 -3 -13 -11 -13 -10 0 -17 -13 -21 -37 -7 -46 -4 -69 12 -85 20 -20
14 -38 -13 -38 -14 0 -25 5 -25 10 0 6 7 10 15 10 8 0 15 4 15 9 0 7 -18 8
-71 3 -8 -1 -24 -9 -35 -18 -18 -14 -18 -15 6 -9 22 6 20 3 -12 -25 -70 -58
-73 -143 -8 -205 31 -30 78 -37 127 -21 20 7 21 5 17 -26 -3 -18 -7 -44 -11
-58 -14 -63 -13 -103 4 -115 15 -11 8 -14 -49 -20 -37 -4 -99 -5 -138 -3 -48
3 -69 1 -67 -6 2 -7 50 -14 118 -17 63 -4 122 -7 132 -8 11 -1 17 -9 17 -25 0
-30 -17 -43 -23 -19 -3 10 -5 -7 -6 -38 -1 -51 1 -57 22 -63 12 -3 26 -6 31
-6 5 0 6 34 4 75 -4 60 -2 75 10 80 8 3 72 3 142 -1 127 -7 128 -7 135 16 4
13 2 40 -5 61 -17 49 -6 85 30 104 37 19 73 19 110 0 44 -23 70 -85 35 -85
-16 0 -17 -10 -6 -50 7 -24 8 -24 29 17 29 56 28 79 -6 113 -61 61 -168 62
-208 2 -20 -29 -23 -124 -4 -130 34 -12 -7 -18 -129 -20 l-139 -3 -4 125 c-2
68 -7 128 -11 132 -4 5 -22 2 -40 -5 -45 -18 -67 -16 -94 11 -37 37 -44 78
-22 127 22 51 59 68 107 51 17 -6 42 -8 53 -5 21 7 21 11 14 116 l-7 109 131
0 c120 0 133 2 152 21 14 14 19 28 14 42 -21 71 -18 95 13 127 24 24 39 30 72
30 35 0 48 -6 77 -35 37 -37 37 -36 17 -115 l-6 -25 21 25 c44 52 36 100 -25
147 -31 23 -47 28 -91 28 -50 0 -57 -3 -89 -37 -38 -42 -42 -69 -19 -124 11
-27 11 -36 2 -39 -39 -12 -114 -22 -185 -24 l-81 -2 -3 148 c-2 81 -2 149 -1
151 1 2 19 -6 40 -19 37 -21 40 -21 74 -5 46 21 69 63 69 121 0 57 -28 109
-72 131 -29 15 -32 15 -59 -5 -36 -27 -44 -26 -45 2 0 12 -2 67 -4 122 l-3
100 133 5 c123 5 133 7 151 29 14 16 17 30 12 50 -4 14 -8 42 -8 60 0 67 101
105 159 60 31 -25 36 -53 7 -44 -19 6 -20 2 -15 -52 5 -63 34 -113 34 -58 0
15 3 25 7 21 10 -9 41 74 36 95 -3 9 -20 31 -38 49 -51 49 -109 53 -178 10
l-52 -32 28 30 c16 16 46 38 68 48 39 19 50 34 25 34 -16 0 -60 -34 -104 -80
-30 -32 -32 -39 -26 -75 11 -63 10 -110 -2 -108 -32 6 -86 2 -154 -11 -41 -8
-77 -13 -78 -11 -2 2 -3 75 -3 163 2 159 2 159 -23 175 -21 14 -26 14 -36 2
-16 -20 -55 -19 -74 1 -21 20 -30 58 -22 89 6 23 11 24 84 28 42 1 -42 3 -188
3 -146 0 -196 -2 -112 -3 l152 -4 1 -27 c1 -35 55 -110 102 -141 20 -13 34
-28 31 -32 -6 -10 -56 8 -66 24 -4 6 -10 8 -14 4 -4 -4 0 -15 8 -24 29 -33 51
-88 53 -131 2 -24 5 -46 9 -49 11 -11 6 -23 -9 -23 -9 0 -18 -6 -21 -14 -3 -8
-16 -13 -30 -11 -13 1 -27 -2 -30 -6 -3 -5 -26 -9 -50 -9 -32 0 -44 -4 -42
-12 3 -9 42 -15 122 -19 64 -4 120 -10 123 -13 4 -4 -3 -13 -15 -22 -18 -12
-22 -25 -22 -67 0 -62 -6 -72 -44 -81 -34 -8 -62 -40 -71 -78 -4 -15 -11 -30
-16 -33 -14 -9 -11 -93 5 -123 34 -65 93 -91 144 -63 28 15 28 8 -2 -24 -20
-22 -23 -31 -15 -58 4 -18 11 -50 14 -71 5 -30 9 -36 16 -25 7 9 8 1 3 -26 -4
-22 -8 -42 -11 -45 -8 -9 -160 -19 -205 -13 -53 6 -57 14 -32 66 14 30 14 37
1 69 -29 69 -152 103 -209 58 -41 -31 -53 -73 -38 -121 17 -51 11 -56 -80 -64
-36 -3 -91 -8 -123 -11 l-57 -6 0 124 c0 67 -3 134 -7 146 -6 24 -6 24 25 8
66 -34 120 -6 142 72 13 51 -8 110 -52 147 -36 30 -52 31 -78 5 -24 -24 -45
-26 -36 -4 3 9 6 69 6 135 l0 119 128 0 c179 0 184 5 157 136 -6 26 -2 35 25
57 37 32 97 36 135 11 25 -16 34 -44 15 -44 -6 0 -15 -12 -21 -27 -13 -34 9
-184 23 -159 14 25 24 12 23 -30 0 -31 -5 -39 -35 -55 -19 -11 -46 -19 -60
-19 -34 0 -88 34 -102 65 -11 25 -28 34 -28 15 0 -22 31 -70 52 -81 68 -36
141 -27 182 22 33 39 33 69 0 100 -29 28 -28 62 6 109 28 40 25 73 -11 109
-63 63 -148 61 -215 -5 -36 -36 -43 -70 -25 -117 14 -35 -1 -49 -55 -52 -27
-1 -82 -6 -123 -10 l-73 -8 3 156 c3 96 0 160 -6 166 -6 6 -27 6 -54 1 -52 -9
-73 0 -97 46 -15 27 -16 37 -6 58 l12 26 139 0 c133 0 141 -1 152 -21 16 -30
4 -87 -23 -117 l-23 -25 23 12 c29 15 53 75 50 123 l-2 38 -205 -1 c-114 -1
-196 -4 -183 -6 17 -3 22 -11 22 -35 0 -70 59 -143 114 -141 27 1 35 -4 40
-21 8 -30 7 -38 -4 -31 -5 3 -10 2 -10 -4 0 -5 5 -11 11 -13 7 -2 4 -10 -7
-18 -16 -13 -17 -13 -9 0 8 13 6 13 -8 1 -15 -12 -14 -37 1 -27 4 2 8 -25 8
-60 1 -34 4 -70 7 -79 6 -13 -8 -15 -99 -15 -58 0 -114 5 -125 10 -10 6 -19 7
-19 2 0 -21 30 -31 105 -37 44 -3 100 -8 123 -11 l44 -6 -7 -36 c-10 -51 -10
-62 -1 -99 4 -19 3 -40 -3 -50 -9 -16 -11 -16 -20 7 -5 14 -10 19 -10 13 -1
-7 -20 -21 -43 -32 -57 -26 -105 -78 -113 -121 -9 -53 37 -139 89 -164 32 -16
44 -17 69 -8 16 6 33 9 38 7 4 -3 7 -59 7 -125 l0 -120 -116 0 c-149 0 -166 4
-157 39 19 74 17 97 -9 128 -34 41 -76 57 -132 50 -49 -5 -89 -35 -106 -77 -7
-19 -4 -36 13 -73 20 -41 21 -50 9 -58 -8 -5 -75 -9 -149 -9 l-134 0 5 107 c3
59 2 122 -2 140 -6 25 -4 33 5 33 8 0 17 -4 20 -10 3 -5 21 -10 40 -10 47 0
95 55 95 111 0 87 -87 176 -127 129 -10 -11 -21 -20 -25 -20 -5 0 -8 59 -8
130 l0 130 53 1 c28 1 87 0 130 -1 70 -2 82 1 103 21 27 25 30 62 9 99 -22 38
-18 47 24 76 34 22 46 25 81 19 23 -4 53 -17 67 -29 l26 -23 -18 -50 c-10 -28
-15 -59 -11 -69 5 -14 11 -9 31 29 34 62 32 92 -6 128 -66 61 -146 59 -209 -6
l-34 -35 17 -35 c9 -20 17 -47 17 -60 0 -20 -5 -25 -27 -26 -16 0 -37 -2 -48
-3 -11 -2 -62 -6 -114 -11 l-94 -7 5 130 c4 99 2 137 -8 157 l-13 26 33 -20
c44 -28 68 -26 107 6 41 35 62 84 53 129 -6 33 -8 34 -48 33 -27 -1 -33 -3
-16 -6 38 -7 50 -22 50 -59 0 -43 -43 -94 -85 -98 -16 -2 -43 3 -59 11 -24 13
-36 13 -67 3 -50 -17 -86 -6 -109 33 -24 39 -25 74 -3 99 15 17 14 18 -38 17
-30 -1 -43 -4 -29 -6 23 -3 25 -8 22 -37 -8 -68 56 -146 118 -146 l38 0 -5
-62 c-2 -35 0 -83 5 -108 10 -45 10 -45 12 -10 l2 35 9 -40 c16 -80 25 -75
-133 -75 -178 0 -175 -17 5 -26 70 -4 130 -11 133 -16 3 -5 -1 -20 -10 -33
-11 -17 -16 -48 -16 -105 l0 -80 -26 6 c-15 4 -40 0 -62 -10 -31 -14 -41 -26
-55 -66 -35 -99 33 -210 119 -194 18 3 34 2 37 -3 2 -4 8 -61 12 -125 l7 -118
-114 0 c-150 0 -162 4 -152 44 19 82 -7 127 -98 166 l-50 22 -46 -24 c-35 -18
-50 -33 -61 -62 -13 -34 -13 -41 2 -66 36 -61 29 -65 -150 -75 l-103 -5 0 151
0 151 35 -22 c31 -19 40 -21 65 -10 47 20 73 71 68 132 -5 45 -11 57 -46 90
-48 45 -64 47 -86 13 -34 -52 -41 -32 -38 104 l3 129 31 6 c17 3 76 6 133 6
89 0 104 3 120 20 13 14 16 28 11 52 -20 97 -20 94 17 117 58 36 151 22 163
-24 7 -28 -12 -75 -31 -75 -18 0 -18 -1 -5 -34 11 -29 40 -35 40 -10 0 9 10
36 22 61 l22 43 -20 28 c-64 87 -192 79 -247 -16 -18 -31 -18 -33 -1 -60 31
-46 28 -60 -15 -72 -21 -5 -45 -8 -52 -5 -8 3 -51 -1 -97 -8 -45 -8 -84 -11
-87 -9 -3 3 -3 73 1 156 6 169 2 187 -41 168 -35 -16 -72 1 -99 47 -16 28 -17
39 -9 62 l11 29 -71 -2 c-54 -1 -60 -3 -26 -5 l47 -4 6 -47 c8 -64 38 -109 78
-120 19 -5 40 -5 51 0 27 14 37 1 31 -40 -4 -20 -7 -82 -8 -136 l-1 -99 -89 2
c-50 1 -92 3 -95 3 -4 0 -26 0 -50 -1 -84 -2 -29 -16 102 -26 l131 -10 1 -117
c0 -65 -3 -118 -6 -118 -3 0 -15 9 -28 21 -19 18 -26 19 -50 9 -59 -24 -111
-98 -111 -157 0 -86 94 -151 160 -110 33 20 40 -5 40 -142 l0 -124 -142 7
c-78 3 -146 10 -151 15 -5 5 1 27 12 49 25 50 25 55 5 98 -22 47 -83 78 -137
71 -50 -7 -86 -33 -112 -80 -19 -34 -19 -37 -2 -72 33 -69 32 -70 -156 -80
l-108 -6 3 156 c2 85 5 155 8 155 3 0 11 -9 18 -20 8 -13 23 -20 43 -20 41 0
66 15 84 50 53 102 -51 267 -120 190 -21 -23 -14 -26 15 -8 25 16 46 4 78 -42
27 -41 28 -94 2 -137 -28 -46 -64 -53 -100 -18 l-29 28 -52 -26 c-42 -20 -57
-24 -73 -15 -65 33 -75 120 -20 175 22 23 57 30 97 21 22 -5 42 -6 46 -2 3 3
5 61 3 129 l-3 122 53 6 c29 4 92 7 139 7 70 0 89 3 102 18 21 23 21 41 1 91
-12 30 -13 44 -4 60 12 23 79 61 108 61 23 0 112 -56 112 -70 0 -6 -9 -29 -21
-51 -20 -41 -23 -85 -4 -83 6 0 12 9 14 20 2 10 12 31 22 46 23 32 24 66 3 96
-20 29 -105 72 -141 72 -37 0 -95 -40 -123 -84 l-21 -35 22 -39 c35 -59 25
-68 -83 -76 -51 -3 -113 -9 -137 -13 l-44 -6 6 153 c3 91 2 161 -4 172 -17 32
-45 40 -77 21 -26 -15 -34 -16 -55 -4 -31 16 -51 61 -45 96 l5 25 -361 -2
c-198 -1 -320 -4 -269 -5 85 -3 94 -6 113 -30 25 -32 25 -49 0 -91 -25 -40
-46 -49 -74 -32 -21 13 -21 13 -2 -9 25 -27 53 -24 78 9 30 41 38 84 22 115
-8 15 -14 29 -14 31 0 2 103 4 230 4 l230 0 6 -40 c12 -75 83 -131 139 -110
47 18 48 15 40 -62 -9 -91 -9 -96 -2 -137 3 -19 3 -47 0 -63 -4 -22 -11 -28
-32 -28 -14 0 -33 4 -41 10 -9 5 -19 5 -27 -2 -9 -7 -13 -7 -13 1 0 7 -5 9
-11 6 -15 -10 -69 -13 -63 -4 2 4 -13 5 -33 3 -21 -3 -45 0 -53 5 -12 9 -12
14 3 46 9 20 17 45 17 56 0 61 -73 119 -148 119 -47 0 -98 -32 -125 -78 -19
-32 -19 -32 3 -78 17 -34 20 -48 11 -57 -8 -8 -11 -8 -11 0 0 14 -62 7 -105
-12 -16 -7 -55 -15 -85 -16 l-55 -3 -5 151 c-3 99 -9 156 -17 164 -9 9 -23 9
-59 -1 l-47 -13 -29 32 c-23 26 -28 40 -26 69 3 32 7 38 33 43 17 4 -71 6
-195 6 -198 -1 -205 -2 -54 -4z m832 -260 c47 -20 61 -56 39 -95 -23 -40 -22
-55 8 -94 24 -31 25 -36 11 -61 -23 -46 -52 -66 -103 -70 -40 -3 -53 0 -74 20
-15 13 -32 34 -38 46 -15 28 -31 27 -31 -3 0 -32 44 -74 92 -87 96 -25 202 43
183 118 l-6 26 93 -7 c183 -13 196 -18 163 -62 -8 -11 -14 -41 -15 -71 0 -53
0 -53 -32 -54 -34 -1 -93 -16 -70 -18 19 -2 14 -13 -22 -55 -60 -68 -62 -133
-6 -188 35 -36 44 -40 77 -35 21 3 48 8 60 12 21 7 21 6 22 -129 l1 -137 -141
2 c-155 1 -167 6 -135 59 34 58 8 120 -67 160 -42 22 -48 23 -86 10 -47 -15
-111 -79 -111 -110 0 -10 8 -35 17 -55 12 -25 14 -38 6 -46 -10 -10 -263 -31
-272 -23 -7 6 -7 294 0 294 3 0 14 -9 24 -20 63 -69 187 47 155 144 -15 48
-52 90 -91 106 -29 13 -32 12 -56 -18 -13 -18 -27 -32 -31 -32 -4 0 -6 60 -5
132 l1 133 127 -3 c103 -3 131 -1 151 12 28 19 33 70 9 102 -31 42 -2 95 61
113 31 9 41 7 92 -16z m1942 -439 c0 -14 -4 -23 -9 -20 -5 3 -7 15 -4 26 7 28
13 25 13 -6z m-2389 -41 c16 -3 37 2 52 12 30 19 53 11 86 -31 27 -35 27 -80
-1 -121 -30 -43 -54 -50 -87 -25 -14 10 -36 22 -47 26 -28 9 -74 -9 -74 -29 0
-27 -60 -15 -83 18 -55 73 14 191 97 165 17 -6 43 -12 57 -15z m1739 7 c44
-44 51 -104 19 -156 -31 -50 -56 -61 -83 -35 -26 24 -72 27 -100 6 -43 -32
-100 -13 -122 42 -19 44 -11 84 26 123 32 34 56 37 118 13 42 -16 44 -15 70 5
34 27 47 27 72 2z m1600 -47 c41 -63 31 -123 -24 -153 -23 -12 -31 -11 -61 3
-44 21 -79 22 -95 2 -13 -16 -57 -20 -76 -7 -41 29 -55 92 -30 140 22 42 56
56 123 49 40 -5 65 -2 82 7 33 18 45 12 81 -41z m702 45 c63 2 67 1 92 -29 26
-30 31 -51 27 -99 -5 -55 -65 -77 -121 -45 -38 22 -87 19 -93 -5 -7 -27 -45
-26 -80 3 -22 17 -30 34 -34 68 -5 41 -2 50 28 83 31 36 35 38 73 30 23 -4 71
-7 108 -6z m-1637 -11 c22 1 54 4 71 8 30 7 34 4 58 -37 32 -54 33 -96 5 -133
-23 -28 -22 -28 -130 -9 -23 3 -39 2 -43 -5 -4 -6 -23 -11 -41 -11 -29 0 -39
6 -61 40 -32 48 -28 94 13 135 23 22 32 25 58 19 16 -4 48 -7 70 -7z m-1933
-293 c41 -29 48 -56 23 -90 -21 -28 -18 -60 7 -84 l22 -20 -21 -38 c-41 -72
-144 -78 -196 -11 -14 18 -27 27 -31 21 -11 -17 43 -71 84 -83 80 -24 170 24
170 90 l0 31 133 -6 c72 -4 134 -8 135 -10 2 -1 1 -17 -3 -35 -5 -23 -10 -28
-16 -18 -6 10 -9 2 -9 -24 0 -21 4 -36 9 -33 10 6 20 -33 13 -52 -3 -10 -7
-10 -18 -1 -19 16 -93 5 -113 -17 -9 -10 -11 -14 -2 -9 9 5 8 0 -4 -18 -9 -14
-22 -28 -29 -30 -16 -6 -26 -62 -19 -101 3 -15 20 -43 38 -62 35 -36 77 -44
129 -24 l26 10 2 -83 c0 -45 2 -101 3 -125 l1 -44 -145 6 c-80 4 -149 10 -153
14 -5 5 1 20 12 34 28 36 25 72 -10 111 -33 38 -95 59 -144 50 -33 -7 -106
-73 -106 -96 0 -10 9 -34 20 -54 19 -35 19 -38 2 -44 -9 -4 -75 -8 -147 -10
l-130 -4 0 123 c0 118 1 123 20 116 49 -16 81 -14 112 5 43 27 61 85 44 140
-14 50 -71 101 -111 101 -17 0 -30 -2 -30 -4 0 -2 -3 -12 -6 -20 -5 -14 -2
-15 21 -6 24 9 31 6 66 -29 43 -43 48 -70 25 -126 -20 -47 -88 -65 -109 -29
-11 19 -36 17 -75 -6 -44 -27 -76 -25 -101 5 -42 55 -32 135 23 170 22 15 31
15 55 5 16 -6 39 -9 51 -5 20 6 21 12 19 111 -1 57 1 107 5 111 4 5 69 8 144
8 l136 0 15 26 c14 24 13 31 -4 69 -17 38 -18 45 -4 68 32 57 109 68 171 26z
m-505 -356 c-3 -7 -5 -2 -5 12 0 14 2 19 5 13 2 -7 2 -19 0 -25z m2388 -69
c36 -21 38 -22 97 -5 56 15 62 15 85 1 63 -41 64 -148 3 -180 -26 -13 -34 -14
-64 -1 -18 8 -37 19 -40 25 -5 7 -23 3 -56 -14 -62 -31 -74 -31 -99 1 -40 51
-34 129 13 177 21 21 18 21 61 -4z m965 5 c32 -19 60 -63 60 -94 0 -34 -28
-79 -62 -100 -31 -18 -31 -18 -67 5 l-37 23 -49 -19 c-66 -25 -72 -24 -106 12
-35 38 -39 88 -9 136 24 39 51 47 112 34 35 -8 55 -7 85 3 21 8 40 15 41 15 2
1 16 -6 32 -15z m-3657 -284 c31 -24 44 -59 27 -70 -7 -4 -14 -27 -17 -51 -4
-37 -1 -48 21 -72 30 -32 33 -63 10 -96 -19 -26 -71 -51 -108 -51 -84 0 -135
95 -86 157 24 30 26 62 5 89 -22 29 -18 53 14 85 36 36 95 40 134 9z"/>
<path d="M1342 5115 c7 -7 269 -7 276 0 3 3 -59 5 -138 5 -79 0 -141 -2 -138
-5z"/>
<path d="M2228 5113 c29 -2 74 -2 100 0 26 2 2 3 -53 3 -55 0 -76 -1 -47 -3z"/>
<path d="M3993 5113 c9 -2 25 -2 35 0 9 3 1 5 -18 5 -19 0 -27 -2 -17 -5z"/>
<path d="M4632 5113 c53 -4 58 -6 64 -30 6 -23 1 -44 -24 -112 -3 -9 -1 -12 6
-7 21 13 43 67 47 112 l4 44 -77 -2 c-69 -2 -71 -2 -20 -5z"/>
<path d="M4751 5115 c3 -2 68 -5 144 -6 77 -1 151 -5 165 -9 21 -7 11 -15 -13
-11 -4 1 -3 -8 3 -18 6 -11 9 -24 8 -28 -1 -4 6 -23 17 -40 13 -22 22 -29 26
-21 5 7 2 19 -4 27 -9 12 -9 13 1 7 9 -5 12 3 12 33 0 22 -5 42 -12 44 -10 4
-10 6 0 6 6 1 12 6 12 11 0 6 -67 10 -182 10 -100 0 -179 -2 -177 -5z"/>
<path d="M1506 5006 c-3 -14 -19 -30 -36 -38 -32 -14 -40 -28 -15 -28 23 0 65
46 65 70 0 27 -6 25 -14 -4z"/>
<path d="M506 4825 c4 -8 8 -15 10 -15 2 0 4 7 4 15 0 8 -4 15 -10 15 -5 0 -7
-7 -4 -15z"/>
<path d="M5072 4668 c19 -28 41 -36 36 -13 -1 10 -14 22 -27 27 -23 8 -23 7
-9 -14z"/>
<path d="M2692 4611 c-3 -37 -66 -91 -108 -91 -46 0 -89 23 -111 60 -9 16 -21
30 -25 30 -29 0 24 -74 67 -94 85 -40 192 10 182 85 -2 22 -4 25 -5 10z"/>
<path d="M3480 4610 c0 -12 -15 -37 -34 -56 -28 -28 -41 -34 -78 -34 -52 0
-81 19 -108 68 l-19 37 -1 -31 c-1 -66 92 -119 169 -95 63 18 118 103 81 126
-5 3 -10 -4 -10 -15z"/>
<path d="M5060 4613 c0 -36 -55 -73 -107 -73 -38 0 -50 5 -80 35 -40 40 -50
40 -32 1 29 -63 127 -86 190 -43 39 26 59 71 41 89 -9 9 -12 7 -12 -9z"/>
<path d="M265 4591 c-22 -44 -62 -71 -104 -71 -44 0 -75 20 -98 63 -20 39 -30
19 -13 -24 20 -48 90 -75 151 -59 42 11 99 70 99 100 0 29 -17 24 -35 -9z"/>
<path d="M1890 4606 c0 -9 -13 -30 -28 -47 -54 -60 -161 -48 -199 24 -16 30
-18 30 -21 10 -2 -13 6 -36 17 -52 45 -63 158 -66 218 -6 32 32 43 68 23 80
-5 3 -10 -1 -10 -9z"/>
<path d="M405 4470 c-3 -6 1 -7 9 -4 18 7 21 14 7 14 -6 0 -13 -4 -16 -10z"/>
<path d="M2856 4437 c-15 -11 -11 -12 25 -9 28 3 37 7 28 13 -19 12 -32 11
-53 -4z"/>
<path d="M346 4404 c-5 -14 -4 -15 9 -4 17 14 19 20 6 20 -5 0 -12 -7 -15 -16z"/>
<path d="M118 4133 c7 -3 16 -2 19 1 4 3 -2 6 -13 5 -11 0 -14 -3 -6 -6z"/>
<path d="M504 4106 c-3 -8 0 -23 6 -33 10 -16 11 -16 6 -1 -3 10 -1 20 4 23 6
4 10 10 10 16 0 14 -20 11 -26 -5z"/>
<path d="M5072 3888 c7 -19 38 -22 38 -4 0 10 -9 16 -21 16 -12 0 -19 -5 -17
-12z"/>
<path d="M255 3822 c-36 -67 -122 -70 -182 -5 -39 43 -54 38 -25 -9 25 -39 47
-54 95 -63 70 -13 147 35 147 91 0 34 -12 30 -35 -14z"/>
<path d="M1888 3833 c-8 -31 -66 -63 -113 -63 -23 0 -55 9 -75 21 l-35 21 19
-21 c29 -32 88 -47 134 -33 45 14 85 53 80 79 -3 16 -5 15 -10 -4z"/>
<path d="M2680 3833 c0 -26 -40 -59 -80 -68 -41 -9 -95 11 -124 46 -32 38 -42
37 -19 -2 38 -65 135 -86 199 -44 33 21 52 61 36 77 -9 9 -12 7 -12 -9z"/>
<path d="M4280 3842 c0 -7 -19 -25 -42 -42 -66 -48 -146 -39 -170 18 -10 23
-12 24 -16 8 -12 -54 108 -97 176 -62 31 16 69 72 58 84 -3 3 -6 0 -6 -6z"/>
<path d="M4938 3743 c7 -3 16 -2 19 1 4 3 -2 6 -13 5 -11 0 -14 -3 -6 -6z"/>
<path d="M2240 3681 c0 -5 9 -13 20 -16 30 -10 72 -81 72 -123 0 -30 2 -33 10
-18 15 28 -6 87 -46 130 -34 35 -56 46 -56 27z"/>
<path d="M4669 3635 c58 -66 60 -130 7 -178 l-21 -19 25 14 c59 35 63 121 8
184 -17 19 -35 34 -40 34 -6 0 4 -16 21 -35z"/>
<path d="M2299 3474 c-23 -25 -23 -26 -2 -13 13 7 25 19 27 26 8 19 2 16 -25
-13z"/>
<path d="M2220 3459 c0 -12 25 -22 41 -17 6 2 0 9 -15 16 -16 7 -26 8 -26 1z"/>
<path d="M4605 3450 c10 -11 24 -20 32 -20 24 0 14 15 -18 27 -31 12 -31 12
-14 -7z"/>
<path d="M4130 3413 c-31 -6 -75 -46 -91 -85 -10 -25 -9 -33 10 -58 41 -57 35
-60 -113 -60 -74 0 -137 -4 -140 -8 -3 -5 54 -12 126 -15 74 -4 134 -11 138
-17 8 -12 30 32 30 59 0 10 -10 30 -21 45 -27 34 -16 66 33 97 69 43 200 -14
160 -70 -21 -28 -24 -40 -18 -58 6 -14 11 -11 28 17 11 19 21 45 21 58 0 54
-91 107 -163 95z"/>
<path d="M3604 3323 c-39 -7 -69 -50 -69 -100 0 -38 5 -49 33 -74 43 -38 84
-39 122 0 36 35 46 73 30 110 -20 50 -63 74 -116 64z"/>
<path d="M5075 3200 c3 -5 13 -10 21 -10 8 0 14 5 14 10 0 6 -9 10 -21 10 -11
0 -17 -4 -14 -10z"/>
<path d="M4266 3175 c16 -44 16 -86 0 -110 -14 -21 -14 -25 -2 -25 38 0 48 90
15 130 -17 20 -19 21 -13 5z"/>
<path d="M1651 3149 c-12 -19 -21 -43 -21 -54 0 -27 27 -65 46 -65 13 0 13 3
0 22 -19 26 -21 71 -5 100 18 34 1 32 -20 -3z"/>
<path d="M5056 3155 c4 -11 8 -36 8 -55 1 -28 -5 -38 -31 -55 -32 -20 -42 -35
-23 -35 20 0 70 56 76 85 4 23 0 37 -16 55 -18 21 -20 22 -14 5z"/>
<path d="M2442 3148 c-30 -30 0 -118 40 -118 18 0 18 2 -7 32 -21 25 -25 38
-20 65 7 36 5 39 -13 21z"/>
<path d="M3760 3121 c-14 -34 -10 -83 8 -89 9 -3 12 13 12 57 0 34 -2 61 -4
61 -2 0 -9 -13 -16 -29z"/>
<path d="M4042 3138 c-7 -7 -12 -20 -12 -30 0 -27 29 -80 40 -73 6 4 3 16 -6
31 -10 14 -14 36 -12 54 3 16 4 30 3 30 0 0 -6 -5 -13 -12z"/>
<path d="M4831 3119 c-1 -40 30 -89 56 -89 11 0 10 6 -8 24 -13 13 -28 41 -35
62 l-12 39 -1 -36z"/>
<path d="M820 3118 c0 -32 36 -88 57 -88 14 0 13 3 -5 23 -12 13 -25 37 -28
55 -7 37 -24 43 -24 10z"/>
<path d="M3480 3115 c0 -15 -9 -40 -21 -56 -17 -24 -18 -29 -5 -29 30 0 60 90
36 105 -6 4 -10 -5 -10 -20z"/>
<path d="M500 2978 c-109 -17 -176 -93 -173 -199 2 -88 56 -171 140 -213 36
-18 169 -43 179 -33 3 3 12 31 19 61 15 62 12 66 -54 66 -57 0 -123 38 -145
84 -17 36 -18 40 -3 71 34 72 154 64 220 -15 38 -44 50 -93 45 -175 -6 -88
-44 -164 -103 -208 -58 -42 -84 -51 -104 -33 -34 29 -82 46 -131 46 -44 0 -56
-5 -81 -29 -22 -23 -29 -39 -29 -69 0 -83 77 -130 190 -117 l57 7 82 -88 c45
-49 108 -123 139 -166 31 -42 61 -77 66 -78 15 0 105 64 106 75 0 17 -104 143
-188 228 -71 73 -76 79 -57 90 51 28 118 105 152 175 33 66 38 85 41 167 6
124 -13 186 -74 254 -64 71 -97 87 -219 105 -11 2 -45 -1 -75 -6z"/>
<path d="M4121 2979 c-99 -19 -170 -87 -191 -183 -26 -116 28 -233 132 -287
l37 -19 -25 -44 c-55 -98 -38 -224 42 -301 96 -93 287 -109 435 -35 l59 29 0
-125 0 -124 75 0 75 0 0 475 0 474 88 3 87 3 0 60 0 60 -212 3 -213 2 0 -65 0
-65 50 0 50 0 0 -264 0 -264 -42 -37 c-67 -58 -121 -79 -208 -79 -83 -1 -128
16 -156 60 -22 32 -21 107 1 140 23 36 90 64 152 64 58 0 59 2 65 80 l3 45
-125 0 c-110 1 -130 3 -167 23 -50 26 -76 70 -76 127 0 75 52 135 118 135 55
0 85 -77 50 -128 -15 -21 -14 -23 37 -56 l53 -35 28 32 c29 33 47 83 47 130 0
73 -72 149 -153 162 -23 4 -49 8 -57 10 -8 1 -35 -1 -59 -6z"/>
<path d="M4431 2973 c0 -6 -4 -20 -7 -30 -5 -14 -4 -15 5 -7 7 7 11 20 8 30
-3 11 -5 14 -6 7z"/>
<path d="M937 2963 c-4 -3 -7 -33 -7 -65 l0 -58 75 0 75 0 0 -475 0 -475 75 0
75 0 0 475 0 475 630 0 631 0 -3 -77 -3 -78 -67 -7 c-218 -21 -343 -121 -356
-285 -4 -48 -10 -67 -28 -84 -12 -11 -27 -18 -33 -14 -6 3 -57 63 -112 132
-67 84 -97 129 -90 136 6 6 43 6 106 0 53 -5 98 -7 101 -4 2 2 4 31 4 63 0 48
-3 58 -17 59 -10 0 -49 4 -88 8 -142 16 -277 -18 -359 -89 -90 -80 -116 -228
-59 -347 41 -88 144 -149 265 -159 98 -8 178 8 268 54 l75 38 37 -47 c25 -32
57 -57 101 -79 75 -37 211 -63 282 -55 l50 5 48 -92 c75 -144 67 -137 132
-105 30 15 55 32 55 38 0 6 -14 31 -31 56 -17 24 -42 63 -54 86 l-24 41 35 30
c63 55 63 146 0 203 -32 30 -42 33 -95 33 -49 0 -65 -4 -90 -25 -26 -23 -30
-34 -33 -83 l-3 -57 -55 3 c-84 4 -135 21 -179 58 -111 95 -87 260 47 322 49
22 74 26 184 30 l128 5 0 143 0 144 465 0 465 0 0 -253 0 -254 -24 -22 c-14
-13 -30 -21 -36 -19 -22 7 -218 263 -209 272 5 6 47 6 105 0 65 -6 98 -6 100
1 2 5 5 32 6 59 3 49 3 50 -32 58 -61 14 -221 10 -285 -7 -150 -40 -235 -145
-235 -290 0 -70 15 -117 53 -167 100 -131 313 -167 491 -83 29 14 56 25 59 25
4 0 7 -61 7 -135 l0 -135 70 0 70 0 1 433 c0 237 1 450 2 472 l2 40 88 3 87 3
0 64 0 65 -1468 0 c-808 0 -1472 -3 -1475 -7z m847 -587 c58 -74 106 -139 106
-145 0 -13 -81 -25 -131 -18 -124 17 -191 130 -144 245 16 38 42 65 55 57 4
-3 55 -65 114 -139z m1491 5 c60 -76 111 -143 113 -149 4 -14 -95 -26 -145
-17 -106 17 -170 114 -143 214 10 37 44 91 58 91 4 0 56 -63 117 -139z"/>
<path d="M1662 2384 c3 -19 55 -61 63 -52 6 6 -49 68 -60 68 -4 0 -5 -7 -3
-16z"/>
<path d="M533 2765 c13 -27 43 -36 33 -9 -3 9 -6 20 -6 25 0 5 -9 9 -19 9 -17
0 -18 -3 -8 -25z"/>
<path d="M574 2781 c3 -5 15 -11 26 -14 17 -4 19 -3 9 9 -12 15 -44 20 -35 5z"/>
<path d="M1305 2755 c-19 -15 -18 -16 21 -10 l41 6 -3 -113 -3 -113 -31 1
c-20 1 -30 -3 -30 -12 0 -9 11 -14 29 -14 27 0 29 -3 35 -52 3 -29 6 -72 6
-96 l0 -43 -36 3 c-49 4 -54 -16 -8 -30 41 -12 79 0 70 23 -11 29 -9 189 3
193 16 5 14 22 -4 22 -12 0 -13 13 -7 83 3 45 7 100 7 122 0 39 -1 40 -35 43
-21 2 -43 -4 -55 -13z"/>
<path d="M2020 2762 c0 -1 14 -9 32 -16 26 -11 37 -11 63 0 39 16 45 11 45
-37 0 -30 3 -37 15 -33 10 4 15 20 15 50 l0 43 -85 -1 c-47 -1 -85 -4 -85 -6z"/>
<path d="M2801 2747 c24 -19 67 -20 127 -1 21 6 22 4 22 -66 0 -61 2 -71 14
-61 16 13 30 108 20 134 -5 14 -21 16 -106 15 l-100 -2 23 -19z"/>
<path d="M3073 2759 c-18 -5 -33 -12 -33 -14 0 -11 48 -4 66 10 22 16 13 17
-33 4z"/>
<path d="M3825 2760 c3 -5 11 -10 16 -10 6 0 7 5 4 10 -3 6 -11 10 -16 10 -6
0 -7 -4 -4 -10z"/>
<path d="M4480 2757 c-44 -13 -48 -16 -32 -26 18 -11 53 -3 82 20 23 17 23 18
5 18 -11 -1 -36 -6 -55 -12z"/>
<path d="M2265 2750 c-16 -7 -17 -9 -3 -9 9 -1 20 4 23 9 7 11 7 11 -20 0z"/>
<path d="M3774 2675 c0 -49 1 -71 3 -48 2 23 2 64 0 90 -2 26 -3 8 -3 -42z"/>
<path d="M940 2715 c0 -9 9 -15 24 -15 13 0 31 -3 40 -6 10 -4 16 -1 16 9 0
17 -21 27 -56 27 -15 0 -24 -6 -24 -15z"/>
<path d="M95 2706 c-63 -28 -76 -63 -50 -143 6 -19 4 -23 -14 -23 -21 0 -29
-24 -11 -35 14 -9 48 12 55 34 3 11 -1 34 -10 52 -17 31 -16 32 12 60 54 54
119 53 169 -2 15 -17 16 -24 4 -60 -13 -38 -12 -41 11 -63 22 -20 31 -22 94
-17 58 5 66 8 45 16 -14 5 -49 8 -77 7 -48 -3 -53 -1 -53 18 0 12 5 30 11 42
18 33 2 67 -48 98 -51 32 -90 37 -138 16z"/>
<path d="M4918 2707 c-77 -19 -106 -74 -72 -138 15 -29 14 -31 -6 -36 -23 -6
-22 -26 2 -31 9 -2 20 9 28 27 10 26 10 35 -4 56 -27 41 -20 61 28 85 38 18
51 20 82 11 70 -19 89 -54 57 -108 -16 -28 -15 -31 10 -85 33 -69 25 -101 -28
-123 -74 -32 -131 -8 -165 69 l-19 41 0 -34 c-1 -26 8 -42 38 -72 33 -34 45
-39 83 -39 53 0 106 31 126 73 12 25 11 32 -13 74 l-27 45 23 49 c19 42 21 52
10 72 -25 46 -100 78 -153 64z"/>
<path d="M4519 2671 c-7 -21 3 -111 12 -105 11 7 12 85 0 103 -6 9 -10 9 -12
2z"/>
<path d="M2700 2522 c0 -12 190 -21 205 -10 5 5 0 8 -10 8 -11 0 -59 3 -107 7
-60 4 -88 2 -88 -5z"/>
<path d="M3772 2400 l2 -125 3 113 4 112 84 0 c50 0 85 4 85 10 0 12 0 12
-102 14 l-78 1 2 -125z"/>
<path d="M4490 2510 c0 -5 14 -10 30 -10 17 0 30 5 30 10 0 6 -13 10 -30 10
-16 0 -30 -4 -30 -10z"/>
<path d="M5070 2510 c20 -13 40 -13 40 0 0 6 -12 10 -27 10 -22 0 -25 -2 -13
-10z"/>
<path d="M30 2453 c0 -63 98 -121 169 -98 34 11 24 21 -18 17 -57 -6 -105 21
-130 71 l-20 42 -1 -32z"/>
<path d="M540 2460 c0 -5 5 -10 10 -10 6 0 10 5 10 10 0 6 -4 10 -10 10 -5 0
-10 -4 -10 -10z"/>
<path d="M2680 2441 c0 -18 -9 -38 -22 -51 -18 -17 -19 -20 -5 -20 29 0 60 81
37 95 -6 4 -10 -6 -10 -24z"/>
<path d="M3479 2438 c4 -28 6 -29 9 -9 2 13 0 27 -5 32 -6 6 -7 -3 -4 -23z"/>
<path d="M2430 2443 c0 -26 35 -80 60 -93 35 -19 33 -5 -5 33 -19 19 -35 44
-35 56 0 12 -4 21 -10 21 -5 0 -10 -8 -10 -17z"/>
<path d="M4521 2414 c0 -11 3 -14 6 -6 3 7 2 16 -1 19 -3 4 -6 -2 -5 -13z"/>
<path d="M872 2383 c4 -24 71 -45 114 -37 48 9 42 23 -6 17 -29 -4 -48 0 -75
16 -33 19 -36 19 -33 4z"/>
<path d="M4455 2310 c-3 -6 1 -7 9 -4 18 7 21 14 7 14 -6 0 -13 -4 -16 -10z"/>
<path d="M3840 2295 c0 -3 20 -25 45 -48 52 -50 59 -89 24 -138 -33 -47 -54
-53 -92 -29 l-32 22 28 -26 c37 -34 52 -33 93 8 28 28 34 42 34 75 0 50 -20
91 -56 120 -26 20 -44 27 -44 16z"/>
<path d="M4443 2290 c-35 -14 -28 -31 7 -19 17 6 30 15 30 20 0 11 -8 11 -37
-1z"/>
<path d="M2847 2269 c-15 -11 -25 -24 -22 -29 6 -10 75 22 72 34 -6 18 -24 16
-50 -5z"/>
<path d="M2300 2255 c13 -14 26 -25 28 -25 3 0 -5 11 -18 25 -13 14 -26 25
-28 25 -3 0 5 -11 18 -25z"/>
<path d="M350 2138 c0 -26 39 -75 69 -88 34 -13 50 -9 99 26 l22 17 -2 -127
c-2 -69 -6 -126 -10 -126 -5 0 -8 8 -8 18 -1 15 -2 15 -10 1 -7 -12 -32 -18
-92 -23 -46 -4 -98 -10 -116 -13 -63 -11 -10 -23 103 -23 61 0 116 -4 123 -8
14 -10 12 -61 -3 -59 -15 3 -18 -62 -3 -81 9 -11 10 -14 1 -8 -8 4 -13 2 -13
-5 0 -7 -3 -9 -7 -6 -3 4 -11 3 -17 -2 -6 -5 -28 -14 -48 -20 -21 -7 -38 -16
-38 -21 0 -5 -14 -29 -30 -54 -46 -67 -45 -116 3 -170 27 -32 39 -38 71 -38
21 0 43 5 49 11 17 17 37 13 37 -9 0 -20 -45 -50 -75 -50 -8 0 -15 -4 -15 -9
0 -5 -9 -11 -21 -14 -13 -4 -19 -12 -17 -25 2 -10 -4 -27 -12 -37 -8 -10 -15
-21 -14 -24 2 -10 -41 1 -48 13 -5 6 -8 2 -8 -11 0 -14 -11 -29 -30 -39 -50
-30 -22 -44 85 -44 148 0 194 -18 125 -48 -16 -8 -30 -20 -30 -28 0 -17 -100
-114 -118 -114 -11 0 -28 -49 -22 -66 1 -4 -4 -10 -10 -14 -14 -9 10 -98 37
-139 27 -41 45 -50 102 -51 l54 0 -19 -21 c-16 -17 -26 -20 -64 -14 -50 7 -94
31 -85 45 4 6 1 10 -6 10 -7 0 -20 7 -30 16 -16 14 -18 13 -24 -14 -6 -30 -17
-34 -44 -18 -11 7 -13 5 -8 -7 3 -10 4 -17 1 -17 -2 0 -9 12 -15 26 -9 26 -10
26 -23 8 -14 -18 -16 -18 -51 -1 -27 13 -41 15 -56 7 -27 -15 -23 0 11 39 52
59 32 49 -30 -16 l-60 -61 0 -135 c0 -132 0 -135 21 -130 29 8 34 27 19 88
-11 47 -11 57 3 78 37 57 126 60 173 5 16 -20 22 -34 15 -36 -19 -6 -41 -71
-41 -118 0 -24 -5 -44 -11 -44 -5 0 -8 -4 -4 -9 3 -5 -9 -24 -27 -41 -42 -39
-75 -37 -105 9 -18 27 -24 30 -29 17 -3 -9 2 -28 12 -44 53 -81 150 -89 213
-16 38 42 39 63 6 94 -14 13 -25 31 -25 41 0 16 4 15 25 -6 23 -24 30 -25 150
-25 140 0 159 -11 69 -42 -28 -9 -40 -17 -27 -17 30 -1 23 -24 -17 -57 -19
-16 -47 -42 -63 -57 -15 -16 -37 -30 -50 -33 -12 -2 -29 -12 -37 -22 -17 -21
-46 -23 -42 -3 1 7 -2 10 -8 6 -6 -3 -8 -11 -5 -16 4 -5 0 -9 -8 -9 -8 0 -20
-6 -26 -14 -6 -8 -21 -16 -32 -19 -19 -5 -19 -4 -6 11 28 34 31 45 9 33 -12
-6 -25 -17 -29 -24 -4 -7 -23 -24 -42 -37 -19 -13 -32 -19 -28 -13 5 8 -1 8
-23 0 -16 -6 -30 -15 -30 -19 0 -4 85 -8 189 -8 l188 0 -4 24 c-7 33 53 99 88
97 13 -1 40 -3 59 -4 l35 -2 -2 117 -2 118 121 -6 c66 -3 133 -2 149 1 36 8
48 45 29 89 -18 46 -14 68 20 99 41 37 96 37 139 1 33 -27 40 -44 18 -44 -12
0 -21 -27 -41 -122 -4 -19 -15 -30 -31 -34 -29 -7 -55 -43 -33 -45 7 -1 17 -1
21 0 5 1 6 -3 2 -8 -3 -6 -13 -7 -23 -4 -13 4 -13 2 3 -10 19 -16 19 -16 -12
-17 -20 0 -43 10 -62 26 -30 25 -31 25 -31 4 0 -34 49 -76 99 -84 58 -9 123
21 145 68 21 44 20 63 -3 75 -22 12 -35 41 -23 53 5 5 14 -2 21 -15 12 -23 19
-24 138 -30 159 -7 195 -31 68 -44 -33 -4 -55 -11 -55 -18 0 -6 -7 -12 -15
-12 -8 0 -12 4 -9 9 3 4 1 8 -5 8 -7 0 -118 -120 -127 -138 -1 -1 -11 -5 -23
-7 -12 -2 -19 0 -16 6 13 20 -16 7 -50 -22 -40 -35 -56 -35 -23 0 l21 23 -42
-6 c-51 -7 -64 -15 -131 -88 l-52 -58 238 0 c185 0 235 3 226 12 -21 21 -13
57 22 95 33 36 35 37 68 25 47 -17 75 -15 82 5 4 9 4 61 0 115 l-7 98 136 0
c136 0 137 0 153 26 15 21 15 31 6 58 -17 46 -15 69 9 95 46 49 111 47 158 -3
l23 -24 -23 -31 c-16 -22 -23 -46 -25 -93 -3 -79 -16 -112 -49 -134 -35 -23
-72 -10 -102 35 -22 33 -23 33 -23 9 0 -64 85 -112 159 -89 42 12 101 70 101
100 0 9 -11 28 -25 41 -25 24 -33 50 -15 50 13 0 40 65 40 96 0 29 -50 88 -90
104 -16 7 -30 16 -30 21 0 15 -69 10 -95 -7 -13 -9 -28 -13 -33 -10 -5 3 -21
-7 -36 -23 -20 -21 -27 -39 -28 -72 -1 -24 -6 -50 -11 -57 -5 -6 -6 -12 -1
-13 22 -2 -45 -17 -83 -18 -26 -1 -45 -7 -50 -16 -5 -8 -20 -16 -33 -17 -23
-3 -25 0 -25 42 1 25 4 86 9 137 8 90 8 92 -18 118 -25 25 -27 25 -62 10 -20
-8 -45 -15 -54 -15 -28 0 -60 48 -60 89 0 72 60 114 130 91 69 -23 72 -17 64
120 l-7 120 141 0 c131 0 142 1 152 20 8 15 7 27 -5 49 -23 46 -19 76 16 105
37 31 96 35 140 9 40 -24 47 -55 20 -89 -23 -29 -29 -108 -10 -120 8 -4 9 1 4
16 -4 14 -3 20 3 16 12 -7 21 -76 10 -82 -4 -3 -8 -14 -8 -25 0 -23 -36 -39
-90 -39 -31 0 -44 6 -69 35 -17 20 -31 43 -31 52 0 13 -3 14 -11 6 -16 -16 5
-67 38 -93 101 -79 276 36 192 126 l-22 23 22 45 c11 25 21 58 21 73 -1 55
-61 103 -127 103 -27 0 -43 5 -43 12 0 6 -7 3 -16 -8 -8 -10 -13 -13 -9 -7 4
9 1 11 -9 7 -9 -3 -13 -11 -9 -17 3 -6 1 -7 -5 -3 -16 10 -57 -19 -71 -50 -9
-20 -9 -32 2 -53 19 -38 11 -50 -34 -57 -21 -4 -36 -10 -34 -15 3 -4 -16 -10
-42 -14 -27 -3 -63 -8 -80 -11 l-33 -5 0 128 c-1 151 -9 172 -61 154 -50 -17
-78 -13 -104 15 -29 31 -31 60 -10 110 18 44 64 66 112 52 59 -16 66 -1 58
123 -4 60 -3 109 2 112 5 3 60 7 122 8 145 2 165 7 169 43 2 16 -2 42 -9 59
-12 28 -11 32 19 58 37 33 90 38 147 15 29 -12 35 -20 35 -45 0 -16 -4 -33
-10 -36 -16 -10 -12 -41 9 -66 18 -22 28 -24 152 -29 l133 -5 3 -104 c4 -92 2
-103 -12 -97 -9 3 -28 6 -42 6 -18 0 -24 4 -19 15 11 29 -16 15 -60 -31 -70
-74 -71 -171 -2 -230 32 -26 66 -29 111 -9 26 11 22 -17 -7 -44 -21 -20 -23
-27 -14 -57 13 -49 7 -90 -13 -86 -9 1 -30 -3 -45 -9 -27 -10 -28 -12 -9 -19
21 -9 -50 -15 -127 -11 -41 2 -52 -15 -15 -24 12 -2 72 -6 134 -7 61 -2 115
-6 118 -10 4 -4 -2 -19 -14 -34 -13 -17 -21 -41 -21 -66 0 -36 -3 -40 -37 -54
-21 -9 -55 -32 -75 -52 -44 -41 -49 -79 -20 -148 27 -64 44 -84 87 -98 21 -8
41 -19 43 -25 6 -18 -48 -12 -83 9 l-32 20 5 -28 c2 -15 8 -32 13 -37 7 -9 7
-21 0 -54 -1 -2 -8 2 -16 9 -8 7 -15 9 -15 6 0 -4 -14 3 -31 15 l-31 22 11
-22 c8 -14 10 -38 5 -69 -4 -26 -8 -54 -8 -62 -1 -9 -13 -16 -33 -18 -18 -2
-33 -7 -33 -11 0 -22 30 -31 111 -31 102 0 179 -9 179 -22 0 -4 -13 -16 -29
-26 -17 -10 -89 -75 -162 -145 -117 -113 -163 -153 -130 -114 8 10 7 17 -2 27
-10 12 -9 12 4 2 14 -10 18 -8 29 18 7 16 16 30 21 30 5 0 9 7 9 16 0 9 9 29
21 46 38 53 14 39 -53 -29 -138 -142 -131 -137 -211 -144 -44 -3 13 -6 144 -7
l216 -2 -5 29 c-3 21 4 37 26 62 28 31 35 34 89 34 l58 0 3 113 3 112 133 0
c146 0 164 7 152 55 -3 14 -9 36 -12 51 -8 32 26 70 75 84 28 8 42 6 70 -8 45
-24 61 -49 41 -65 -28 -22 -38 -62 -33 -130 l6 -67 -32 -6 c-17 -4 -31 -13
-31 -21 0 -42 -66 -16 -100 40 l-20 32 0 -27 c0 -14 12 -40 26 -57 62 -74 188
-58 224 29 10 25 9 33 -14 67 -37 54 -34 88 3 41 16 -19 30 -22 149 -26 73 -3
132 -8 132 -12 0 -4 -15 -13 -32 -20 -59 -22 -78 -33 -83 -49 -3 -9 -21 -34
-41 -56 -20 -22 -49 -65 -64 -95 -16 -30 -37 -60 -48 -67 -18 -11 -19 -9 -15
33 l4 44 -26 -26 c-14 -14 -30 -22 -37 -18 -7 4 -8 3 -4 -5 4 -7 -2 -20 -16
-31 -28 -23 -46 -27 -24 -4 27 26 18 26 -24 -2 -22 -14 -45 -24 -52 -22 -7 3
-33 2 -58 -2 -27 -5 37 -8 166 -9 l211 -1 -5 28 c-3 20 4 38 23 60 40 48 63
57 85 37 10 -9 27 -15 37 -13 16 3 19 17 23 118 l5 115 131 -3 c119 -2 132 -1
148 17 14 15 17 28 11 53 -15 72 -11 100 15 120 42 31 90 33 130 6 37 -25 52
-58 27 -58 -15 0 -25 -68 -24 -164 0 -32 -5 -44 -34 -67 -55 -46 -79 -37 -137
47 -11 17 -12 15 -7 -16 19 -121 206 -132 245 -15 11 32 9 38 -14 66 -32 38
-32 40 0 89 19 29 24 46 19 68 -17 80 -134 119 -212 71 -26 -16 -37 -18 -48
-9 -29 24 -45 -60 -24 -130 3 -11 -11 -16 -61 -22 -36 -4 -86 -14 -113 -22
-28 -8 -49 -10 -53 -5 -3 5 -2 65 1 132 7 116 6 123 -15 149 -29 37 -6 36 37
-2 18 -16 38 -30 43 -30 20 0 80 64 89 95 16 58 -12 130 -61 156 -33 18 -33 2
1 -36 48 -55 53 -107 14 -153 l-18 -21 -57 19 c-56 20 -57 20 -100 0 -57 -26
-74 -25 -103 5 -37 36 -34 93 5 135 29 31 33 32 84 27 82 -8 91 6 82 132 l-7
99 78 5 c43 3 105 6 138 6 68 2 90 19 80 61 -18 71 -17 85 9 109 53 50 158 31
188 -34 10 -22 8 -30 -11 -56 -28 -37 -23 -57 7 -29 69 65 6 172 -102 172 -89
0 -153 -68 -126 -133 19 -46 -1 -57 -126 -69 -60 -5 -115 -10 -123 -10 -11 0
-13 21 -7 118 7 110 6 120 -14 144 -20 26 -22 27 -61 13 -46 -17 -65 -10 -98
31 -26 33 -26 60 -1 102 27 45 61 59 110 45 34 -8 42 -7 55 7 14 15 15 35 9
129 l-7 111 132 0 c73 0 141 5 152 10 22 12 24 39 7 87 -11 29 -10 35 12 58
45 48 113 52 165 10 28 -21 28 -24 17 -62 -14 -47 -15 -73 -4 -73 12 0 32 61
32 96 0 39 -32 69 -91 85 -54 14 -92 4 -129 -36 -22 -23 -25 -41 -18 -110 3
-26 -1 -30 -27 -36 -16 -4 -79 -7 -139 -8 l-109 -1 6 120 c6 111 5 122 -13
140 -24 24 -32 25 -72 4 -24 -13 -36 -14 -49 -5 -23 14 -36 -4 -19 -24 15 -18
44 -19 69 -3 30 18 51 3 51 -37 0 -21 -5 -35 -12 -35 -10 0 -9 -3 1 -9 9 -6
10 -11 2 -15 -6 -4 -11 -25 -11 -47 0 -24 4 -38 10 -34 6 4 10 -5 10 -19 0
-18 -5 -26 -17 -26 -10 0 -26 -7 -37 -15 -17 -13 -15 -14 20 -17 l39 -3 0
-108 c0 -103 -7 -138 -21 -102 -5 12 -18 15 -59 13 -29 -2 -51 -5 -49 -7 2 -2
-12 -25 -31 -51 -39 -53 -43 -85 -19 -136 33 -69 69 -82 152 -58 28 8 29 -12
3 -40 -14 -16 -20 -40 -23 -91 l-4 -70 -59 -6 c-33 -3 -49 -7 -35 -9 14 -1 29
-2 33 -1 5 1 6 -2 3 -7 -6 -10 -153 -8 -163 2 -3 3 -1 17 5 31 32 69 -5 135
-89 159 -31 10 -58 12 -72 7 -12 -4 -27 -6 -32 -4 -6 2 -21 -6 -33 -17 -22
-21 -37 -27 -27 -10 3 6 1 10 -5 10 -6 0 -8 -11 -4 -27 4 -22 3 -25 -5 -13 -8
11 -9 6 -4 -20 4 -19 8 -53 8 -75 0 -38 -2 -40 -30 -41 -16 -1 -41 -4 -55 -7
-14 -3 -53 -8 -87 -10 l-63 -3 0 127 c0 150 -5 160 -73 141 -36 -10 -45 -9
-67 7 -49 36 -56 120 -12 163 20 20 49 24 109 13 39 -7 42 -6 48 17 4 14 2 67
-3 119 -5 52 -7 97 -5 102 2 4 58 7 123 7 134 0 170 9 170 41 0 29 -21 99 -30
99 -16 0 -17 -14 -2 -51 9 -24 12 -43 6 -49 -5 -4 -60 -12 -122 -15 -62 -4
-120 -8 -130 -9 -15 -1 -17 11 -17 98 0 70 -4 100 -13 103 -9 4 -12 -20 -12
-96 l0 -101 -79 0 c-43 0 -106 3 -140 6 -68 8 -75 18 -46 75 24 45 -7 87 -80
109 -55 16 -111 0 -153 -43 l-33 -34 17 -42 c9 -23 13 -45 9 -49 -7 -7 -267
-32 -274 -26 -2 2 2 63 9 135 11 115 11 132 -3 146 -13 13 -20 13 -51 2 -35
-13 -53 -34 -36 -44 5 -3 20 0 34 6 14 7 27 10 29 8 2 -2 0 -58 -3 -124 l-5
-120 -30 -1 c-16 -1 -78 -2 -137 -3 -65 -1 -108 -5 -108 -11 0 -6 43 -10 109
-10 156 0 198 -12 157 -44 -8 -6 -17 -33 -20 -61 -2 -27 -5 -51 -5 -51 -1 -1
-19 -4 -41 -8 -44 -7 -130 -79 -130 -109 0 -23 17 -22 25 2 6 20 45 60 45 45
-1 -5 -14 -25 -30 -44 -37 -43 -40 -93 -7 -141 34 -50 68 -64 123 -49 57 16
67 5 27 -29 -18 -15 -33 -32 -33 -37 0 -5 5 -2 10 6 9 13 10 13 10 0 0 -9 -6
-22 -12 -28 -10 -10 -10 -15 2 -22 12 -8 11 -10 -5 -11 -11 0 -15 -3 -9 -5 21
-9 -43 -65 -78 -68 -18 -2 -41 -7 -50 -11 -12 -5 -18 -3 -18 6 0 11 -2 11 -8
2 -4 -7 -19 -14 -32 -15 -20 -2 -24 1 -22 17 2 11 6 35 9 53 10 64 -56 122
-140 122 -27 0 -46 4 -43 9 13 20 -29 20 -63 -1 -48 -30 -80 -68 -81 -95 0
-30 -33 -58 -86 -73 -40 -11 -79 -39 -58 -41 5 0 -4 -5 -20 -9 -16 -5 -33 -7
-37 -4 -5 2 -6 48 -2 102 3 59 1 113 -5 136 -7 22 -10 41 -8 43 2 2 17 -8 34
-22 40 -34 81 -33 115 3 61 64 56 133 -14 196 -37 34 -79 48 -79 26 0 -5 6
-10 14 -10 21 0 73 -64 81 -99 9 -42 -21 -95 -57 -99 -15 -2 -45 6 -67 17 -55
28 -74 26 -111 -11 l-32 -32 -30 33 c-26 29 -29 40 -25 74 3 24 16 50 33 68
25 26 33 28 88 26 l61 -2 -2 123 -2 122 109 0 c61 0 110 3 110 8 0 12 -38 42
-42 32 -2 -4 -43 -11 -92 -15 l-89 -8 7 129 c6 121 5 130 -15 153 -14 18 -24
22 -33 15 -66 -48 -64 -47 -91 -30 -14 10 -31 28 -37 42 -12 25 -38 33 -38 12z
m643 -862 c18 -7 40 -22 49 -33 17 -19 17 -21 -3 -62 -15 -32 -19 -53 -14 -81
8 -45 -11 -89 -50 -114 -35 -23 -84 -9 -110 32 -32 50 -49 34 -23 -23 16 -36
57 -55 115 -55 72 0 132 48 133 106 0 29 -22 48 -38 32 -9 -9 -8 -4 0 14 12
25 14 26 31 10 15 -13 46 -18 145 -22 84 -3 127 -9 129 -17 3 -7 -11 -15 -32
-19 -28 -5 -56 -25 -110 -78 -40 -39 -81 -84 -91 -101 -50 -82 -152 -180 -181
-173 -27 5 -150 -75 -164 -107 -2 -5 -7 -9 -11 -7 -5 1 -8 -2 -8 -8 0 -15 -59
-71 -73 -69 -31 5 -67 -14 -73 -40 -18 -77 -21 -86 -38 -89 -17 -4 -18 4 -11
127 6 112 5 135 -9 156 -30 46 -11 49 31 5 15 -16 33 -30 40 -30 46 0 103 69
103 124 0 37 -34 100 -67 126 l-28 22 -3 -28 c-3 -20 2 -33 17 -43 24 -15 27
-49 8 -101 -15 -43 -17 -44 -63 -25 -51 21 -72 19 -115 -11 -31 -21 -41 -24
-59 -14 -46 24 -50 108 -7 147 30 28 57 35 96 23 57 -16 64 -3 60 125 l-4 110
150 5 150 5 3 29 c2 15 -2 41 -8 57 -10 24 -10 33 5 55 14 22 64 52 88 54 4 0
22 -6 40 -14z m1651 -17 c39 -33 41 -43 21 -104 -3 -11 0 -29 9 -40 13 -18 29
-21 145 -25 71 -3 133 -9 137 -13 4 -4 -2 -16 -14 -27 -14 -13 -22 -33 -22
-53 0 -44 -10 -56 -46 -55 -42 1 -122 -55 -140 -98 -8 -18 -14 -50 -13 -71 0
-30 2 -34 9 -18 7 17 9 17 9 3 2 -41 33 -96 65 -113 31 -17 48 -17 104 0 29
10 30 -18 1 -43 -42 -34 -57 -54 -52 -68 3 -8 -1 -14 -10 -14 -8 0 -20 -7 -27
-15 -10 -12 -10 -15 0 -15 9 0 9 -4 -1 -17 -12 -14 -12 -15 -1 -9 11 7 12 4 4
-10 -5 -11 -8 -24 -5 -29 4 -12 -80 -45 -114 -45 -16 0 -23 6 -23 19 0 11 5
23 10 26 17 11 11 61 -11 89 -24 31 -69 56 -99 56 -11 0 -23 7 -26 15 -12 30
-92 5 -114 -35 -6 -11 -15 -18 -20 -15 -14 9 -30 -30 -30 -74 0 -43 5 -40 -93
-56 -21 -3 -35 -10 -32 -16 4 -5 2 -9 -3 -9 -5 0 -24 -3 -42 -7 l-33 -6 6 138
c5 98 4 142 -4 152 -17 20 -1 29 24 14 22 -14 22 -14 3 8 -24 26 -39 26 -94 0
l-44 -22 -25 25 c-15 15 -27 41 -30 65 -4 34 -1 45 23 72 29 32 38 34 119 28
l30 -2 -3 116 -3 116 32 7 c17 3 76 6 130 6 107 0 137 13 124 54 -21 70 -18
92 15 119 46 39 103 37 154 -4z m-1370 -631 c21 -1 40 -6 43 -12 3 -5 1 -6 -5
-2 -6 3 -13 2 -17 -4 -11 -17 -67 -3 -94 25 l-26 27 31 -16 c17 -8 48 -16 68
-18z m-206 -41 c25 0 62 -69 62 -114 0 -43 -25 -83 -51 -83 -12 0 -9 13 12 68
12 28 11 36 -6 69 -11 20 -33 45 -50 55 -27 18 -27 19 -5 12 14 -4 31 -7 38
-7z m-825 -8 c12 -6 34 -23 50 -37 37 -35 39 -107 3 -141 -31 -29 -39 -14 -19
37 21 55 6 93 -51 127 -41 25 -27 36 17 14z m722 -269 c3 -5 1 -10 -4 -10 -6
0 -11 5 -11 10 0 6 2 10 4 10 3 0 8 -4 11 -10z"/>
<path d="M955 719 c-11 -16 -1 -19 13 -3 7 8 8 14 3 14 -5 0 -13 -5 -16 -11z"/>
<path d="M2032 2068 c6 -18 51 -33 74 -24 24 9 7 22 -40 30 -29 6 -37 4 -34
-6z"/>
<path d="M3009 2067 c14 -18 71 -24 71 -7 0 6 -11 10 -24 10 -13 0 -33 3 -43
7 -16 6 -16 5 -4 -10z"/>
<path d="M3773 2000 c0 -41 2 -58 4 -37 2 20 2 54 0 75 -2 20 -4 3 -4 -38z"/>
<path d="M115 2015 c-60 -21 -87 -60 -81 -112 4 -34 2 -43 -9 -43 -20 0 -20
-49 0 -57 20 -7 55 24 55 49 0 11 -5 28 -11 40 -16 29 -4 61 30 81 38 22 78
22 119 -3 34 -21 38 -30 23 -58 -4 -10 -4 -32 1 -51 l9 -33 20 38 c23 46 24
72 3 102 -32 46 -102 67 -159 47z"/>
<path d="M975 2010 c21 -23 45 -26 45 -6 0 7 -10 16 -22 20 -38 10 -42 7 -23
-14z"/>
<path d="M4524 2009 c-7 -8 -13 -39 -15 -69 -2 -30 -10 -63 -18 -72 -13 -16
-12 -18 7 -18 28 0 36 -15 9 -18 -23 -3 -164 -10 -204 -11 -13 -1 -23 -5 -23
-11 0 -6 41 -10 104 -10 121 0 166 -7 166 -26 0 -8 -6 -14 -14 -14 -12 0 -30
-48 -38 -103 -2 -12 -18 -24 -42 -32 -47 -17 -57 -25 -58 -56 -1 -13 -10 -34
-20 -45 -26 -30 -26 -94 1 -137 25 -41 68 -61 110 -52 43 9 43 -21 0 -39 -32
-13 -33 -16 -17 -56 19 -47 17 -77 -6 -88 -11 -5 -31 -8 -43 -6 -12 2 -25 -1
-29 -8 -5 -7 -3 -8 6 -3 8 5 11 3 8 -6 -3 -10 -23 -15 -62 -16 -32 -1 -61 -4
-64 -8 -16 -16 33 -25 146 -25 74 0 122 -4 122 -10 0 -5 -6 -10 -13 -10 -7 0
-21 -18 -31 -40 -9 -22 -38 -57 -64 -77 -47 -38 -101 -92 -103 -102 0 -3 -3
-17 -5 -31 -7 -38 26 -131 58 -163 24 -25 35 -28 73 -25 47 3 58 -9 30 -32
-20 -17 -74 -5 -115 25 -35 26 -53 25 -43 -1 3 -9 13 -14 23 -11 20 5 21 -13
2 -35 -6 -8 -9 -18 -5 -21 3 -4 -1 -7 -10 -7 -20 0 -22 -20 -4 -39 7 -9 7 -11
1 -8 -9 5 -10 -3 -4 -30 8 -33 6 -39 -22 -65 -16 -15 -35 -25 -40 -22 -6 4 -9
1 -6 -7 6 -18 68 -27 181 -28 64 -1 88 -4 85 -13 -3 -7 -20 -16 -39 -20 -53
-13 -89 -30 -84 -38 2 -4 -13 -26 -34 -49 -35 -38 -40 -40 -49 -25 -9 16 -13
15 -41 -13 -35 -35 -81 -53 -128 -49 -18 2 -33 -1 -33 -6 0 -5 -10 -6 -22 -3
-18 5 -20 4 -8 -4 13 -10 10 -16 -18 -41 -35 -33 -64 -41 -41 -13 8 10 -5 3
-28 -15 -24 -19 -45 -38 -48 -43 -4 -5 147 -9 384 -9 l391 0 0 23 c0 43 -86
157 -108 143 -5 -3 -13 -27 -17 -53 -8 -53 -21 -83 -36 -83 -6 0 -8 58 -7 157
l3 156 126 -2 c106 -2 129 0 143 14 19 19 19 27 5 78 -12 46 3 77 52 103 37
19 78 13 120 -17 35 -24 42 -75 10 -66 -15 4 -20 -2 -25 -33 -3 -21 -3 -58 0
-83 6 -42 4 -49 -24 -76 -47 -47 -97 -39 -129 22 -9 18 -18 27 -20 20 -8 -22
27 -78 58 -97 59 -35 155 0 177 63 9 26 7 33 -14 56 -31 33 -30 59 1 97 29 34
31 48 10 88 -22 42 -67 62 -126 58 -42 -2 -47 -1 -32 10 9 6 32 12 50 12 18 0
33 5 33 10 0 6 13 10 29 10 32 0 54 -20 24 -21 -16 0 -15 -2 3 -10 11 -6 29
-25 40 -42 l19 -32 3 58 c2 42 -1 62 -12 73 -9 8 -16 11 -16 5 0 -6 -6 -8 -14
-5 -7 3 -51 -2 -96 -10 -99 -19 -103 -19 -94 -4 4 7 -6 2 -23 -10 -17 -12 -36
-22 -41 -22 -6 0 -13 -8 -16 -18 -3 -9 -16 -22 -28 -27 -14 -6 -23 -19 -24
-33 -1 -12 -5 -26 -9 -30 -5 -4 -5 1 -2 11 4 11 -15 -1 -48 -28 -30 -26 -55
-53 -55 -60 0 -15 -32 -45 -48 -45 -9 0 -12 41 -12 145 0 123 -2 145 -16 153
-12 7 -13 11 -4 17 7 4 24 -5 44 -24 37 -36 48 -38 86 -11 71 50 63 181 -13
230 -21 13 -22 13 -31 -16 -5 -17 -2 -20 16 -20 16 1 27 -9 40 -34 21 -43 22
-73 3 -109 -13 -26 -55 -50 -55 -31 0 4 -9 10 -21 13 -12 3 -18 10 -15 15 9
15 -39 23 -72 11 -16 -6 -32 -19 -35 -30 -8 -29 -53 -24 -88 10 -42 43 -38 92
14 149 23 25 46 27 93 10 26 -9 36 -9 49 2 15 12 16 28 10 127 l-7 113 130 0
c113 0 133 3 153 19 25 20 25 17 -8 107 -8 21 47 73 83 80 78 14 167 -70 112
-107 -5 -3 -10 -17 -12 -30 -1 -14 -6 -30 -10 -37 -4 -7 -4 -12 1 -12 14 1 63
90 63 116 0 35 -48 80 -99 94 -78 21 -139 -17 -161 -101 -6 -22 -15 -39 -21
-39 -6 0 -8 -4 -4 -9 3 -5 -20 -13 -50 -16 -37 -5 -55 -12 -55 -21 0 -8 -10
-14 -22 -14 -13 -1 -41 -3 -62 -6 l-39 -6 5 123 c2 68 3 132 0 142 -4 20 -10
20 -98 2 -26 -6 -35 -2 -57 25 -40 46 -37 92 8 137 36 36 61 40 115 19 22 -8
42 8 43 35 0 13 -3 68 -8 122 l-8 97 114 2 c177 3 180 3 190 19 13 20 11 33
-7 55 -13 16 -15 16 -10 2 3 -11 -3 -26 -15 -37 -18 -16 -40 -20 -143 -23 -66
-2 -129 0 -138 4 -14 7 -18 25 -20 105 -2 74 -6 93 -14 82z m-499 -1978 c-3
-6 -14 -11 -23 -11 -13 0 -13 2 4 14 21 15 30 14 19 -3z"/>
<path d="M4085 1992 c-53 -33 -59 -47 -48 -107 7 -39 6 -55 -2 -58 -6 -3 -59
-5 -118 -6 -59 -1 -114 -4 -121 -7 -8 -3 -17 -1 -21 5 -4 8 -13 8 -28 0 -14
-8 -60 -10 -150 -5 -88 5 -127 4 -122 -4 4 -6 53 -10 123 -10 144 0 165 -5
155 -34 -4 -11 -6 -60 -5 -108 1 -49 -1 -88 -6 -88 -4 0 -17 7 -30 15 -33 24
-90 5 -122 -41 -14 -19 -30 -41 -36 -48 -15 -16 -4 -81 21 -124 25 -42 64 -58
106 -43 56 19 59 16 57 -46 -1 -36 -3 -45 -5 -25 -2 17 -8 32 -13 32 -20 0
-39 -13 -33 -23 12 -19 13 -87 1 -84 -6 1 -12 -4 -14 -11 -1 -7 0 -8 3 -2 3 8
9 7 19 -1 18 -15 18 -43 0 -36 -7 3 -19 0 -25 -6 -7 -7 -49 -11 -106 -12 -52
0 -95 -2 -95 -5 0 -23 34 -30 151 -30 74 0 130 -4 134 -10 3 -5 -6 -21 -20
-34 -14 -14 -25 -30 -24 -38 5 -25 -12 -57 -34 -64 -12 -4 -40 -21 -62 -38
-93 -73 -103 -102 -60 -185 39 -77 98 -111 145 -81 19 12 32 -8 19 -32 -6 -11
-21 -18 -39 -18 -17 0 -30 -4 -30 -10 0 -5 -18 -3 -40 5 -25 9 -42 10 -45 4
-4 -5 -3 -9 2 -8 21 4 34 -2 27 -13 -4 -7 -3 -8 4 -4 7 4 12 4 13 -1 0 -4 2
-16 4 -26 3 -14 -1 -16 -18 -11 -12 3 -29 10 -37 15 -13 7 -12 8 3 9 9 0 17 4
17 10 0 12 -22 9 -32 -4 -3 -5 2 -31 13 -58 11 -30 15 -48 8 -48 -6 0 -8 -7
-5 -17 4 -10 4 -14 0 -10 -4 4 -18 -3 -32 -15 -13 -13 -25 -22 -28 -20 -2 1
-12 2 -21 2 -16 0 -16 -1 0 -18 15 -14 40 -18 140 -20 110 -3 151 -12 135 -27
-3 -3 -44 -12 -92 -20 l-86 -13 -64 -69 -64 -68 -69 0 c-48 0 -70 -4 -70 -12
0 -7 5 -9 11 -6 6 4 7 2 3 -3 -5 -5 -13 -10 -18 -10 -5 -1 -14 -2 -20 -3 -5 0
-8 -5 -5 -10 4 -5 -4 -7 -16 -4 -19 4 -20 3 -8 -6 13 -9 13 -11 -1 -11 -9 0
-16 -7 -16 -15 0 -8 5 -15 10 -15 18 0 -24 -39 -47 -43 -11 -2 69 -5 179 -6
l200 -1 16 39 c9 21 25 40 37 43 19 5 19 3 10 -26 -6 -17 -15 -37 -21 -44 -7
-9 24 -12 152 -12 187 0 181 -4 130 98 -21 44 -36 62 -50 62 -14 0 -19 -7 -19
-26 0 -31 -50 -84 -79 -84 -23 0 -19 25 6 34 13 5 15 26 12 134 l-4 127 136
-4 137 -3 17 25 c15 24 16 29 1 58 -21 43 -20 56 7 83 34 34 98 43 137 20 35
-21 38 -30 11 -39 -24 -7 -31 -26 -36 -97 -2 -29 -7 -62 -11 -72 -5 -14 -4
-17 4 -12 7 4 12 1 12 -9 0 -9 -13 -22 -30 -28 -22 -8 -28 -16 -24 -29 14 -44
-72 7 -88 52 -3 8 -9 12 -13 8 -14 -13 12 -63 46 -86 28 -20 43 -23 88 -19 46
3 59 9 83 36 32 36 35 67 11 110 -17 30 -17 32 5 73 37 71 26 108 -41 139 -51
22 -86 24 -132 5 -50 -21 -43 -11 13 19 26 15 39 24 30 21 -10 -3 -18 -1 -18
5 0 5 -18 0 -40 -11 -46 -23 -54 -25 -45 -7 9 17 -29 -29 -68 -83 -24 -32 -43
-48 -71 -55 -25 -7 -42 -19 -47 -33 -6 -15 -4 -22 4 -22 17 -1 -12 -16 -45
-24 l-28 -6 0 137 c0 113 -3 140 -17 155 -15 17 -15 18 2 18 9 0 30 -11 47
-25 34 -29 46 -31 76 -9 48 34 67 116 38 172 -19 38 -51 64 -72 60 -25 -4 -30
-28 -6 -28 20 0 46 -23 36 -32 -3 -3 6 -17 20 -31 43 -43 10 -107 -55 -107
-27 0 -52 19 -27 21 7 1 -3 5 -22 9 -46 11 -80 3 -108 -26 -13 -13 -28 -24
-35 -24 -24 0 -56 30 -67 64 -14 43 6 96 45 122 23 15 31 15 66 4 68 -23 74
-12 74 121 l1 114 119 2 c66 2 130 5 142 8 36 8 46 38 28 82 -20 48 -13 76 26
104 45 31 98 30 143 -4 41 -31 45 -58 16 -87 -24 -24 -25 -36 -5 -44 11 -4 22
7 37 38 18 38 19 46 7 71 -24 48 -63 70 -127 70 -44 0 -65 -5 -89 -23 -33 -23
-44 -19 -20 8 10 12 9 12 -6 0 -10 -7 -16 -19 -13 -26 2 -6 -2 -20 -9 -31 -14
-17 -14 -17 -15 2 l-1 20 -8 -20 c-10 -23 -4 -38 10 -30 5 3 6 -1 3 -9 -3 -8
0 -25 7 -38 6 -13 8 -20 4 -16 -5 4 -13 3 -20 -2 -21 -17 -128 -47 -177 -49
-55 -2 -51 -14 -48 136 1 51 -3 100 -9 112 -15 28 -51 47 -60 32 -4 -6 -22
-16 -40 -21 -30 -8 -36 -6 -62 21 -40 43 -40 95 1 139 29 31 33 32 88 26 85
-9 85 -8 81 130 l-4 119 141 3 c168 3 177 8 150 75 -15 40 -15 43 2 67 10 14
37 32 60 40 39 13 45 13 87 -8 52 -25 66 -58 41 -94 -17 -24 -21 -48 -8 -48
14 0 42 58 42 87 0 30 -25 60 -67 82 -33 17 -104 13 -138 -7z m-475 -1761
c-10 -20 -50 -57 -50 -47 0 4 9 16 20 28 10 12 17 24 15 28 -2 4 2 7 10 7 10
0 11 -5 5 -16z"/>
<path d="M1337 1955 c-4 -8 -2 -17 3 -20 6 -4 10 3 10 14 0 25 -6 27 -13 6z"/>
<path d="M5047 1905 c-9 -20 -17 -46 -17 -58 0 -17 6 -12 25 22 25 44 32 71
17 71 -5 0 -16 -16 -25 -35z"/>
<path d="M846 1825 c-11 -8 -15 -15 -9 -15 6 0 16 7 23 15 16 19 11 19 -14 0z"/>
<path d="M5080 1820 c-12 -8 -11 -10 8 -10 12 0 22 5 22 10 0 13 -11 13 -30 0z"/>
<path d="M31 1756 c-1 -32 6 -45 39 -78 39 -39 42 -40 97 -36 49 4 60 9 90 41
31 35 45 87 23 87 -5 0 -10 -8 -10 -17 -1 -42 -56 -83 -115 -85 -43 -2 -79 29
-106 87 l-18 40 0 -39z"/>
<path d="M1871 1773 c5 -58 -1 -73 -41 -93 -71 -36 -127 -19 -171 54 -14 23
-19 26 -19 13 0 -30 31 -74 65 -93 82 -44 211 31 191 112 -7 27 -28 33 -25 7z"/>
<path d="M5058 1780 c13 -15 16 -59 4 -75 -4 -6 -20 -21 -36 -33 -65 -50 -160
-10 -176 74 l-8 39 -1 -42 c-1 -52 34 -98 88 -114 99 -30 208 95 133 152 -14
11 -15 11 -4 -1z"/>
<path d="M830 1741 c0 -12 15 -38 34 -59 33 -35 38 -37 95 -37 56 0 63 3 95
35 35 36 55 80 37 80 -6 0 -11 -7 -11 -15 0 -8 -12 -29 -27 -45 -54 -60 -150
-46 -200 29 -20 29 -23 31 -23 12z"/>
<path d="M3480 1732 c0 -35 -31 -65 -83 -82 -51 -16 -103 9 -131 64 -25 49
-34 31 -10 -20 25 -53 90 -81 149 -64 24 7 53 22 64 34 25 26 38 81 22 90 -7
5 -11 -3 -11 -22z"/>
<path d="M4044 1725 c4 -28 15 -49 37 -69 29 -26 37 -28 91 -24 46 3 64 10 84
29 27 28 48 85 33 94 -5 4 -9 -4 -9 -18 0 -37 -51 -78 -104 -84 -57 -7 -90 13
-118 70 l-19 42 5 -40z"/>
<path d="M2445 1723 c12 -50 68 -93 120 -93 34 0 95 26 111 48 21 28 16 37 -8
15 -35 -32 -63 -43 -105 -43 -43 0 -73 21 -98 70 -19 38 -29 39 -20 3z"/>
<path d="M2932 1670 c0 -19 2 -27 5 -17 2 9 2 25 0 35 -3 9 -5 1 -5 -18z"/>
<path d="M1494 1540 c41 -45 47 -89 21 -140 -12 -23 -22 -30 -45 -30 -28 0
-40 -13 -22 -24 18 -11 53 8 72 39 32 51 27 116 -11 160 -17 19 -36 35 -41 35
-6 0 6 -18 26 -40z"/>
<path d="M4650 1574 c0 -6 14 -28 30 -49 17 -21 30 -31 30 -23 0 16 -59 88
-60 72z"/>
<path d="M3060 1560 c0 -9 14 -27 30 -42 21 -18 30 -35 30 -56 0 -47 -20 -91
-49 -107 -14 -8 -20 -14 -13 -15 8 0 27 13 43 29 24 25 29 37 29 80 0 45 -5
56 -35 89 -22 23 -35 31 -35 22z"/>
<path d="M4514 1405 c-22 -16 -12 -20 16 -5 13 7 28 7 46 0 24 -9 25 -9 14 5
-16 19 -50 19 -76 0z"/>
<path d="M1320 1400 c-8 -5 -10 -10 -5 -10 6 0 17 5 25 10 8 5 11 10 5 10 -5
0 -17 -5 -25 -10z"/>
<path d="M4624 1352 c14 -27 20 -31 36 -22 27 15 34 29 10 23 -12 -3 -29 2
-42 13 l-21 19 17 -33z"/>
<path d="M67 1331 c-38 -14 -54 -58 -56 -152 -2 -81 0 -89 17 -89 31 0 45 44
27 86 -19 47 -6 81 42 100 48 20 92 11 127 -25 l28 -30 -19 -28 c-30 -43 -33
-60 -18 -97 13 -31 13 -37 0 -50 -11 -11 -12 -16 -2 -19 6 -3 3 -6 -8 -6 -15
-1 -17 -3 -6 -10 10 -7 8 -12 -10 -25 -40 -28 -78 -20 -120 24 -41 43 -59 38
-34 -10 37 -72 143 -80 202 -16 35 38 42 76 18 96 -20 17 -19 39 5 75 33 50
27 87 -22 129 -24 21 -47 40 -53 44 -13 9 -95 11 -118 3z"/>
<path d="M4832 1293 c-14 -6 -42 -56 -42 -75 1 -7 7 2 16 21 8 19 22 40 32 47
18 14 16 16 -6 7z"/>
<path d="M384 1228 c3 -10 1 -18 -3 -18 -15 0 -21 -29 -8 -36 7 -4 9 -3 4 1
-4 5 -1 16 7 24 11 12 12 21 5 31 -9 12 -10 12 -5 -2z"/>
<path d="M2391 1157 c-9 -12 -8 -16 3 -20 19 -7 32 11 19 24 -6 6 -14 5 -22
-4z"/>
<path d="M3200 1150 c-8 -5 -12 -12 -9 -15 8 -8 39 5 39 16 0 11 -11 11 -30
-1z"/>
<path d="M1998 1133 c7 -3 16 -2 19 1 4 3 -2 6 -13 5 -11 0 -14 -3 -6 -6z"/>
<path d="M5075 1116 c-18 -13 -18 -14 3 -25 28 -15 32 -14 32 8 0 27 -13 33
-35 17z"/>
<path d="M4230 1108 c0 -27 22 -68 37 -68 21 0 15 -19 -17 -50 -55 -54 -112
-52 -167 6 -37 39 -41 38 -17 -7 17 -33 66 -59 111 -59 39 0 89 33 108 71 16
30 16 32 -5 46 -12 9 -28 30 -36 47 -7 17 -13 24 -14 14z"/>
<path d="M5011 1074 c0 -11 3 -14 6 -6 3 7 2 16 -1 19 -3 4 -6 -2 -5 -13z"/>
<path d="M5050 1040 c22 -41 -35 -90 -104 -90 -34 0 -57 19 -93 76 -11 18 -12
18 -12 1 -2 -58 71 -114 132 -103 68 13 126 86 96 122 -17 21 -31 17 -19 -6z"/>
<path d="M3473 1023 c-14 -38 -65 -73 -108 -73 -16 0 -44 9 -62 20 -19 11 -30
14 -27 7 7 -20 59 -47 88 -47 67 0 131 53 124 102 -3 21 -4 20 -15 -9z"/>
<path d="M312 740 c0 -14 2 -19 5 -12 2 6 2 18 0 25 -3 6 -5 1 -5 -13z"/>
<path d="M1324 714 c-17 -14 -17 -15 -1 -10 10 3 25 6 33 6 8 0 14 5 14 10 0
15 -24 12 -46 -6z"/>
<path d="M5062 370 c2 -8 13 -16 26 -18 17 -3 22 2 22 17 0 16 -6 20 -25 19
-17 -2 -25 -8 -23 -18z"/>
<path d="M4387 271 c-3 -13 -1 -18 9 -14 7 2 10 11 7 19 -7 19 -10 18 -16 -5z"/>
<path d="M5090 203 c0 -5 -23 -21 -51 -37 -52 -29 -88 -31 -158 -10 -20 6 -23
4 -18 -10 4 -9 3 -15 -2 -12 -11 7 -23 -22 -14 -36 3 -7 1 -8 -5 -4 -6 4 -17
-2 -23 -13 -7 -10 -19 -17 -26 -14 -7 3 -13 -1 -13 -8 0 -7 -3 -9 -6 -6 -4 3
7 22 25 42 17 20 31 41 31 47 0 6 -3 8 -7 5 -3 -4 -13 -1 -22 5 -13 10 -14 10
-3 -2 6 -8 12 -21 12 -29 0 -14 -1 -14 -10 -1 -8 12 -10 10 -10 -8 0 -13 -4
-20 -10 -17 -6 4 -7 11 -4 17 4 6 3 9 -2 5 -5 -3 -8 -19 -8 -36 2 -49 3 -53
14 -46 15 9 12 -2 -6 -19 -14 -15 1 -16 160 -16 l176 0 0 105 c0 63 -4 105
-10 105 -5 0 -10 -3 -10 -7z"/>
<path d="M620 141 c0 -17 5 -33 10 -36 15 -9 -7 -35 -28 -33 -10 1 -48 0 -87
-2 -63 -3 -66 -4 -30 -10 22 -4 34 -8 27 -9 -7 0 -11 -5 -8 -9 3 -5 0 -9 -7
-9 -7 -1 -30 -8 -52 -16 -39 -15 -34 -16 128 -16 192 -1 187 -4 141 87 -16 32
-37 58 -55 67 -38 20 -39 20 -39 -14z"/>
<path d="M2227 163 c-14 -13 -6 -23 17 -23 13 0 29 -7 36 -14 17 -21 8 -59
-15 -66 -11 -3 -20 -13 -20 -24 0 -16 -10 -19 -70 -23 -114 -6 -87 -13 53 -13
l132 0 0 33 c0 43 -43 105 -86 123 -39 16 -39 16 -47 7z"/>
<path d="M1445 133 c37 -77 22 -92 -110 -116 l-80 -15 148 -1 147 -1 0 27 c0
53 -62 133 -104 133 -12 0 -13 -4 -1 -27z"/>
<path d="M3008 122 c-15 -14 -46 -31 -70 -37 -35 -8 -46 -17 -59 -45 l-17 -35
145 -3 c80 -1 148 0 151 3 11 11 -19 83 -49 113 -38 39 -65 40 -101 4z"/>
<path d="M1386 61 c-3 -4 6 -7 19 -7 14 0 22 2 19 5 -8 8 -34 10 -38 2z"/>
</g>
</svg>
